<mxfile host="app.diagrams.net" modified="2022-09-09T14:38:28.988Z" agent="5.0 (Windows NT 10.0; Win64; x64) AppleWebKit/537.36 (KHTML, like Gecko) Chrome/105.0.0.0 Safari/537.36" etag="meTG-GgxyMsTAP3mt9i1" version="20.0.1" type="github" pages="3">
  <diagram id="ENWvGRKm66jdoPPi_Mgj" name="MetadataDB">
    <mxGraphModel dx="1673" dy="829" grid="1" gridSize="10" guides="1" tooltips="1" connect="1" arrows="1" fold="1" page="1" pageScale="1" pageWidth="1169" pageHeight="827" math="0" shadow="0">
      <root>
        <mxCell id="0" />
        <mxCell id="1" parent="0" />
        <mxCell id="-sMg55yq_E413-OcBo4l-1" value="Plugin" style="shape=table;startSize=30;container=1;collapsible=1;childLayout=tableLayout;fixedRows=1;rowLines=0;fontStyle=1;align=center;resizeLast=1;" vertex="1" parent="1">
          <mxGeometry x="360" y="70" width="180" height="150" as="geometry" />
        </mxCell>
        <mxCell id="-sMg55yq_E413-OcBo4l-2" value="" style="shape=tableRow;horizontal=0;startSize=0;swimlaneHead=0;swimlaneBody=0;fillColor=none;collapsible=0;dropTarget=0;points=[[0,0.5],[1,0.5]];portConstraint=eastwest;top=0;left=0;right=0;bottom=1;" vertex="1" parent="-sMg55yq_E413-OcBo4l-1">
          <mxGeometry y="30" width="180" height="30" as="geometry" />
        </mxCell>
        <mxCell id="-sMg55yq_E413-OcBo4l-3" value="PK" style="shape=partialRectangle;connectable=0;fillColor=none;top=0;left=0;bottom=0;right=0;fontStyle=1;overflow=hidden;" vertex="1" parent="-sMg55yq_E413-OcBo4l-2">
          <mxGeometry width="30" height="30" as="geometry">
            <mxRectangle width="30" height="30" as="alternateBounds" />
          </mxGeometry>
        </mxCell>
        <mxCell id="-sMg55yq_E413-OcBo4l-4" value="Id" style="shape=partialRectangle;connectable=0;fillColor=none;top=0;left=0;bottom=0;right=0;align=left;spacingLeft=6;fontStyle=5;overflow=hidden;" vertex="1" parent="-sMg55yq_E413-OcBo4l-2">
          <mxGeometry x="30" width="150" height="30" as="geometry">
            <mxRectangle width="150" height="30" as="alternateBounds" />
          </mxGeometry>
        </mxCell>
        <mxCell id="-sMg55yq_E413-OcBo4l-5" value="" style="shape=tableRow;horizontal=0;startSize=0;swimlaneHead=0;swimlaneBody=0;fillColor=none;collapsible=0;dropTarget=0;points=[[0,0.5],[1,0.5]];portConstraint=eastwest;top=0;left=0;right=0;bottom=0;" vertex="1" parent="-sMg55yq_E413-OcBo4l-1">
          <mxGeometry y="60" width="180" height="30" as="geometry" />
        </mxCell>
        <mxCell id="-sMg55yq_E413-OcBo4l-6" value="" style="shape=partialRectangle;connectable=0;fillColor=none;top=0;left=0;bottom=0;right=0;editable=1;overflow=hidden;" vertex="1" parent="-sMg55yq_E413-OcBo4l-5">
          <mxGeometry width="30" height="30" as="geometry">
            <mxRectangle width="30" height="30" as="alternateBounds" />
          </mxGeometry>
        </mxCell>
        <mxCell id="-sMg55yq_E413-OcBo4l-7" value="Name" style="shape=partialRectangle;connectable=0;fillColor=none;top=0;left=0;bottom=0;right=0;align=left;spacingLeft=6;overflow=hidden;" vertex="1" parent="-sMg55yq_E413-OcBo4l-5">
          <mxGeometry x="30" width="150" height="30" as="geometry">
            <mxRectangle width="150" height="30" as="alternateBounds" />
          </mxGeometry>
        </mxCell>
        <mxCell id="-sMg55yq_E413-OcBo4l-8" value="" style="shape=tableRow;horizontal=0;startSize=0;swimlaneHead=0;swimlaneBody=0;fillColor=none;collapsible=0;dropTarget=0;points=[[0,0.5],[1,0.5]];portConstraint=eastwest;top=0;left=0;right=0;bottom=0;" vertex="1" parent="-sMg55yq_E413-OcBo4l-1">
          <mxGeometry y="90" width="180" height="30" as="geometry" />
        </mxCell>
        <mxCell id="-sMg55yq_E413-OcBo4l-9" value="" style="shape=partialRectangle;connectable=0;fillColor=none;top=0;left=0;bottom=0;right=0;editable=1;overflow=hidden;" vertex="1" parent="-sMg55yq_E413-OcBo4l-8">
          <mxGeometry width="30" height="30" as="geometry">
            <mxRectangle width="30" height="30" as="alternateBounds" />
          </mxGeometry>
        </mxCell>
        <mxCell id="-sMg55yq_E413-OcBo4l-10" value="" style="shape=partialRectangle;connectable=0;fillColor=none;top=0;left=0;bottom=0;right=0;align=left;spacingLeft=6;overflow=hidden;" vertex="1" parent="-sMg55yq_E413-OcBo4l-8">
          <mxGeometry x="30" width="150" height="30" as="geometry">
            <mxRectangle width="150" height="30" as="alternateBounds" />
          </mxGeometry>
        </mxCell>
        <mxCell id="-sMg55yq_E413-OcBo4l-11" value="" style="shape=tableRow;horizontal=0;startSize=0;swimlaneHead=0;swimlaneBody=0;fillColor=none;collapsible=0;dropTarget=0;points=[[0,0.5],[1,0.5]];portConstraint=eastwest;top=0;left=0;right=0;bottom=0;" vertex="1" parent="-sMg55yq_E413-OcBo4l-1">
          <mxGeometry y="120" width="180" height="30" as="geometry" />
        </mxCell>
        <mxCell id="-sMg55yq_E413-OcBo4l-12" value="" style="shape=partialRectangle;connectable=0;fillColor=none;top=0;left=0;bottom=0;right=0;editable=1;overflow=hidden;" vertex="1" parent="-sMg55yq_E413-OcBo4l-11">
          <mxGeometry width="30" height="30" as="geometry">
            <mxRectangle width="30" height="30" as="alternateBounds" />
          </mxGeometry>
        </mxCell>
        <mxCell id="-sMg55yq_E413-OcBo4l-13" value="" style="shape=partialRectangle;connectable=0;fillColor=none;top=0;left=0;bottom=0;right=0;align=left;spacingLeft=6;overflow=hidden;" vertex="1" parent="-sMg55yq_E413-OcBo4l-11">
          <mxGeometry x="30" width="150" height="30" as="geometry">
            <mxRectangle width="150" height="30" as="alternateBounds" />
          </mxGeometry>
        </mxCell>
        <mxCell id="-sMg55yq_E413-OcBo4l-14" value="Environment" style="shape=table;startSize=30;container=1;collapsible=1;childLayout=tableLayout;fixedRows=1;rowLines=0;fontStyle=1;align=center;resizeLast=1;" vertex="1" parent="1">
          <mxGeometry x="90" y="230" width="180" height="160" as="geometry" />
        </mxCell>
        <mxCell id="-sMg55yq_E413-OcBo4l-15" value="" style="shape=tableRow;horizontal=0;startSize=0;swimlaneHead=0;swimlaneBody=0;fillColor=none;collapsible=0;dropTarget=0;points=[[0,0.5],[1,0.5]];portConstraint=eastwest;top=0;left=0;right=0;bottom=1;" vertex="1" parent="-sMg55yq_E413-OcBo4l-14">
          <mxGeometry y="30" width="180" height="30" as="geometry" />
        </mxCell>
        <mxCell id="-sMg55yq_E413-OcBo4l-16" value="PK" style="shape=partialRectangle;connectable=0;fillColor=none;top=0;left=0;bottom=0;right=0;fontStyle=1;overflow=hidden;" vertex="1" parent="-sMg55yq_E413-OcBo4l-15">
          <mxGeometry width="30" height="30" as="geometry">
            <mxRectangle width="30" height="30" as="alternateBounds" />
          </mxGeometry>
        </mxCell>
        <mxCell id="-sMg55yq_E413-OcBo4l-17" value="Id" style="shape=partialRectangle;connectable=0;fillColor=none;top=0;left=0;bottom=0;right=0;align=left;spacingLeft=6;fontStyle=5;overflow=hidden;" vertex="1" parent="-sMg55yq_E413-OcBo4l-15">
          <mxGeometry x="30" width="150" height="30" as="geometry">
            <mxRectangle width="150" height="30" as="alternateBounds" />
          </mxGeometry>
        </mxCell>
        <mxCell id="-sMg55yq_E413-OcBo4l-18" value="" style="shape=tableRow;horizontal=0;startSize=0;swimlaneHead=0;swimlaneBody=0;fillColor=none;collapsible=0;dropTarget=0;points=[[0,0.5],[1,0.5]];portConstraint=eastwest;top=0;left=0;right=0;bottom=0;" vertex="1" parent="-sMg55yq_E413-OcBo4l-14">
          <mxGeometry y="60" width="180" height="30" as="geometry" />
        </mxCell>
        <mxCell id="-sMg55yq_E413-OcBo4l-19" value="" style="shape=partialRectangle;connectable=0;fillColor=none;top=0;left=0;bottom=0;right=0;editable=1;overflow=hidden;" vertex="1" parent="-sMg55yq_E413-OcBo4l-18">
          <mxGeometry width="30" height="30" as="geometry">
            <mxRectangle width="30" height="30" as="alternateBounds" />
          </mxGeometry>
        </mxCell>
        <mxCell id="-sMg55yq_E413-OcBo4l-20" value="PluginId" style="shape=partialRectangle;connectable=0;fillColor=none;top=0;left=0;bottom=0;right=0;align=left;spacingLeft=6;overflow=hidden;" vertex="1" parent="-sMg55yq_E413-OcBo4l-18">
          <mxGeometry x="30" width="150" height="30" as="geometry">
            <mxRectangle width="150" height="30" as="alternateBounds" />
          </mxGeometry>
        </mxCell>
        <mxCell id="-sMg55yq_E413-OcBo4l-21" value="" style="shape=tableRow;horizontal=0;startSize=0;swimlaneHead=0;swimlaneBody=0;fillColor=none;collapsible=0;dropTarget=0;points=[[0,0.5],[1,0.5]];portConstraint=eastwest;top=0;left=0;right=0;bottom=0;" vertex="1" parent="-sMg55yq_E413-OcBo4l-14">
          <mxGeometry y="90" width="180" height="30" as="geometry" />
        </mxCell>
        <mxCell id="-sMg55yq_E413-OcBo4l-22" value="" style="shape=partialRectangle;connectable=0;fillColor=none;top=0;left=0;bottom=0;right=0;editable=1;overflow=hidden;" vertex="1" parent="-sMg55yq_E413-OcBo4l-21">
          <mxGeometry width="30" height="30" as="geometry">
            <mxRectangle width="30" height="30" as="alternateBounds" />
          </mxGeometry>
        </mxCell>
        <mxCell id="-sMg55yq_E413-OcBo4l-23" value="Name" style="shape=partialRectangle;connectable=0;fillColor=none;top=0;left=0;bottom=0;right=0;align=left;spacingLeft=6;overflow=hidden;" vertex="1" parent="-sMg55yq_E413-OcBo4l-21">
          <mxGeometry x="30" width="150" height="30" as="geometry">
            <mxRectangle width="150" height="30" as="alternateBounds" />
          </mxGeometry>
        </mxCell>
        <mxCell id="-sMg55yq_E413-OcBo4l-24" value="" style="shape=tableRow;horizontal=0;startSize=0;swimlaneHead=0;swimlaneBody=0;fillColor=none;collapsible=0;dropTarget=0;points=[[0,0.5],[1,0.5]];portConstraint=eastwest;top=0;left=0;right=0;bottom=0;" vertex="1" parent="-sMg55yq_E413-OcBo4l-14">
          <mxGeometry y="120" width="180" height="30" as="geometry" />
        </mxCell>
        <mxCell id="-sMg55yq_E413-OcBo4l-25" value="" style="shape=partialRectangle;connectable=0;fillColor=none;top=0;left=0;bottom=0;right=0;editable=1;overflow=hidden;" vertex="1" parent="-sMg55yq_E413-OcBo4l-24">
          <mxGeometry width="30" height="30" as="geometry">
            <mxRectangle width="30" height="30" as="alternateBounds" />
          </mxGeometry>
        </mxCell>
        <mxCell id="-sMg55yq_E413-OcBo4l-26" value="OutputDirectory" style="shape=partialRectangle;connectable=0;fillColor=none;top=0;left=0;bottom=0;right=0;align=left;spacingLeft=6;overflow=hidden;" vertex="1" parent="-sMg55yq_E413-OcBo4l-24">
          <mxGeometry x="30" width="150" height="30" as="geometry">
            <mxRectangle width="150" height="30" as="alternateBounds" />
          </mxGeometry>
        </mxCell>
        <mxCell id="-sMg55yq_E413-OcBo4l-27" style="edgeStyle=orthogonalEdgeStyle;rounded=0;orthogonalLoop=1;jettySize=auto;html=1;" edge="1" parent="1" source="-sMg55yq_E413-OcBo4l-2" target="-sMg55yq_E413-OcBo4l-18">
          <mxGeometry relative="1" as="geometry" />
        </mxCell>
        <mxCell id="-sMg55yq_E413-OcBo4l-67" value="" style="edgeStyle=orthogonalEdgeStyle;rounded=0;orthogonalLoop=1;jettySize=auto;html=1;" edge="1" parent="1" source="-sMg55yq_E413-OcBo4l-29" target="-sMg55yq_E413-OcBo4l-52">
          <mxGeometry relative="1" as="geometry">
            <Array as="points">
              <mxPoint x="900" y="85" />
              <mxPoint x="900" y="255" />
            </Array>
          </mxGeometry>
        </mxCell>
        <mxCell id="-sMg55yq_E413-OcBo4l-28" value="ModelMetadata" style="shape=table;startSize=30;container=1;collapsible=1;childLayout=tableLayout;fixedRows=1;rowLines=0;fontStyle=1;align=center;resizeLast=1;" vertex="1" parent="1">
          <mxGeometry x="650" y="40" width="180" height="210" as="geometry" />
        </mxCell>
        <mxCell id="-sMg55yq_E413-OcBo4l-29" value="" style="shape=tableRow;horizontal=0;startSize=0;swimlaneHead=0;swimlaneBody=0;fillColor=none;collapsible=0;dropTarget=0;points=[[0,0.5],[1,0.5]];portConstraint=eastwest;top=0;left=0;right=0;bottom=1;" vertex="1" parent="-sMg55yq_E413-OcBo4l-28">
          <mxGeometry y="30" width="180" height="30" as="geometry" />
        </mxCell>
        <mxCell id="-sMg55yq_E413-OcBo4l-30" value="PK" style="shape=partialRectangle;connectable=0;fillColor=none;top=0;left=0;bottom=0;right=0;fontStyle=1;overflow=hidden;" vertex="1" parent="-sMg55yq_E413-OcBo4l-29">
          <mxGeometry width="30" height="30" as="geometry">
            <mxRectangle width="30" height="30" as="alternateBounds" />
          </mxGeometry>
        </mxCell>
        <mxCell id="-sMg55yq_E413-OcBo4l-31" value="Id" style="shape=partialRectangle;connectable=0;fillColor=none;top=0;left=0;bottom=0;right=0;align=left;spacingLeft=6;fontStyle=5;overflow=hidden;" vertex="1" parent="-sMg55yq_E413-OcBo4l-29">
          <mxGeometry x="30" width="150" height="30" as="geometry">
            <mxRectangle width="150" height="30" as="alternateBounds" />
          </mxGeometry>
        </mxCell>
        <mxCell id="-sMg55yq_E413-OcBo4l-44" value="" style="shape=tableRow;horizontal=0;startSize=0;swimlaneHead=0;swimlaneBody=0;fillColor=none;collapsible=0;dropTarget=0;points=[[0,0.5],[1,0.5]];portConstraint=eastwest;top=0;left=0;right=0;bottom=0;" vertex="1" parent="-sMg55yq_E413-OcBo4l-28">
          <mxGeometry y="60" width="180" height="30" as="geometry" />
        </mxCell>
        <mxCell id="-sMg55yq_E413-OcBo4l-45" value="" style="shape=partialRectangle;connectable=0;fillColor=none;top=0;left=0;bottom=0;right=0;editable=1;overflow=hidden;" vertex="1" parent="-sMg55yq_E413-OcBo4l-44">
          <mxGeometry width="30" height="30" as="geometry">
            <mxRectangle width="30" height="30" as="alternateBounds" />
          </mxGeometry>
        </mxCell>
        <mxCell id="-sMg55yq_E413-OcBo4l-46" value="PluginId" style="shape=partialRectangle;connectable=0;fillColor=none;top=0;left=0;bottom=0;right=0;align=left;spacingLeft=6;overflow=hidden;" vertex="1" parent="-sMg55yq_E413-OcBo4l-44">
          <mxGeometry x="30" width="150" height="30" as="geometry">
            <mxRectangle width="150" height="30" as="alternateBounds" />
          </mxGeometry>
        </mxCell>
        <mxCell id="-sMg55yq_E413-OcBo4l-32" value="" style="shape=tableRow;horizontal=0;startSize=0;swimlaneHead=0;swimlaneBody=0;fillColor=none;collapsible=0;dropTarget=0;points=[[0,0.5],[1,0.5]];portConstraint=eastwest;top=0;left=0;right=0;bottom=0;" vertex="1" parent="-sMg55yq_E413-OcBo4l-28">
          <mxGeometry y="90" width="180" height="30" as="geometry" />
        </mxCell>
        <mxCell id="-sMg55yq_E413-OcBo4l-33" value="" style="shape=partialRectangle;connectable=0;fillColor=none;top=0;left=0;bottom=0;right=0;editable=1;overflow=hidden;" vertex="1" parent="-sMg55yq_E413-OcBo4l-32">
          <mxGeometry width="30" height="30" as="geometry">
            <mxRectangle width="30" height="30" as="alternateBounds" />
          </mxGeometry>
        </mxCell>
        <mxCell id="-sMg55yq_E413-OcBo4l-34" value="SystemName" style="shape=partialRectangle;connectable=0;fillColor=none;top=0;left=0;bottom=0;right=0;align=left;spacingLeft=6;overflow=hidden;" vertex="1" parent="-sMg55yq_E413-OcBo4l-32">
          <mxGeometry x="30" width="150" height="30" as="geometry">
            <mxRectangle width="150" height="30" as="alternateBounds" />
          </mxGeometry>
        </mxCell>
        <mxCell id="-sMg55yq_E413-OcBo4l-35" value="" style="shape=tableRow;horizontal=0;startSize=0;swimlaneHead=0;swimlaneBody=0;fillColor=none;collapsible=0;dropTarget=0;points=[[0,0.5],[1,0.5]];portConstraint=eastwest;top=0;left=0;right=0;bottom=0;" vertex="1" parent="-sMg55yq_E413-OcBo4l-28">
          <mxGeometry y="120" width="180" height="30" as="geometry" />
        </mxCell>
        <mxCell id="-sMg55yq_E413-OcBo4l-36" value="" style="shape=partialRectangle;connectable=0;fillColor=none;top=0;left=0;bottom=0;right=0;editable=1;overflow=hidden;" vertex="1" parent="-sMg55yq_E413-OcBo4l-35">
          <mxGeometry width="30" height="30" as="geometry">
            <mxRectangle width="30" height="30" as="alternateBounds" />
          </mxGeometry>
        </mxCell>
        <mxCell id="-sMg55yq_E413-OcBo4l-37" value="Alias" style="shape=partialRectangle;connectable=0;fillColor=none;top=0;left=0;bottom=0;right=0;align=left;spacingLeft=6;overflow=hidden;" vertex="1" parent="-sMg55yq_E413-OcBo4l-35">
          <mxGeometry x="30" width="150" height="30" as="geometry">
            <mxRectangle width="150" height="30" as="alternateBounds" />
          </mxGeometry>
        </mxCell>
        <mxCell id="-sMg55yq_E413-OcBo4l-41" value="" style="shape=tableRow;horizontal=0;startSize=0;swimlaneHead=0;swimlaneBody=0;fillColor=none;collapsible=0;dropTarget=0;points=[[0,0.5],[1,0.5]];portConstraint=eastwest;top=0;left=0;right=0;bottom=0;" vertex="1" parent="-sMg55yq_E413-OcBo4l-28">
          <mxGeometry y="150" width="180" height="30" as="geometry" />
        </mxCell>
        <mxCell id="-sMg55yq_E413-OcBo4l-42" value="" style="shape=partialRectangle;connectable=0;fillColor=none;top=0;left=0;bottom=0;right=0;editable=1;overflow=hidden;" vertex="1" parent="-sMg55yq_E413-OcBo4l-41">
          <mxGeometry width="30" height="30" as="geometry">
            <mxRectangle width="30" height="30" as="alternateBounds" />
          </mxGeometry>
        </mxCell>
        <mxCell id="-sMg55yq_E413-OcBo4l-43" value="Comments" style="shape=partialRectangle;connectable=0;fillColor=none;top=0;left=0;bottom=0;right=0;align=left;spacingLeft=6;overflow=hidden;" vertex="1" parent="-sMg55yq_E413-OcBo4l-41">
          <mxGeometry x="30" width="150" height="30" as="geometry">
            <mxRectangle width="150" height="30" as="alternateBounds" />
          </mxGeometry>
        </mxCell>
        <mxCell id="-sMg55yq_E413-OcBo4l-38" value="" style="shape=tableRow;horizontal=0;startSize=0;swimlaneHead=0;swimlaneBody=0;fillColor=none;collapsible=0;dropTarget=0;points=[[0,0.5],[1,0.5]];portConstraint=eastwest;top=0;left=0;right=0;bottom=0;" vertex="1" parent="-sMg55yq_E413-OcBo4l-28">
          <mxGeometry y="180" width="180" height="30" as="geometry" />
        </mxCell>
        <mxCell id="-sMg55yq_E413-OcBo4l-39" value="" style="shape=partialRectangle;connectable=0;fillColor=none;top=0;left=0;bottom=0;right=0;editable=1;overflow=hidden;" vertex="1" parent="-sMg55yq_E413-OcBo4l-38">
          <mxGeometry width="30" height="30" as="geometry">
            <mxRectangle width="30" height="30" as="alternateBounds" />
          </mxGeometry>
        </mxCell>
        <mxCell id="-sMg55yq_E413-OcBo4l-40" value="SupportedOperations" style="shape=partialRectangle;connectable=0;fillColor=none;top=0;left=0;bottom=0;right=0;align=left;spacingLeft=6;overflow=hidden;" vertex="1" parent="-sMg55yq_E413-OcBo4l-38">
          <mxGeometry x="30" width="150" height="30" as="geometry">
            <mxRectangle width="150" height="30" as="alternateBounds" />
          </mxGeometry>
        </mxCell>
        <mxCell id="-sMg55yq_E413-OcBo4l-47" style="edgeStyle=orthogonalEdgeStyle;rounded=0;orthogonalLoop=1;jettySize=auto;html=1;" edge="1" parent="1" source="-sMg55yq_E413-OcBo4l-2" target="-sMg55yq_E413-OcBo4l-44">
          <mxGeometry relative="1" as="geometry" />
        </mxCell>
        <mxCell id="-sMg55yq_E413-OcBo4l-48" value="ModelProperty" style="shape=table;startSize=30;container=1;collapsible=1;childLayout=tableLayout;fixedRows=1;rowLines=0;fontStyle=1;align=center;resizeLast=1;" vertex="1" parent="1">
          <mxGeometry x="950" y="180" width="180" height="300" as="geometry" />
        </mxCell>
        <mxCell id="-sMg55yq_E413-OcBo4l-49" value="" style="shape=tableRow;horizontal=0;startSize=0;swimlaneHead=0;swimlaneBody=0;fillColor=none;collapsible=0;dropTarget=0;points=[[0,0.5],[1,0.5]];portConstraint=eastwest;top=0;left=0;right=0;bottom=1;" vertex="1" parent="-sMg55yq_E413-OcBo4l-48">
          <mxGeometry y="30" width="180" height="30" as="geometry" />
        </mxCell>
        <mxCell id="-sMg55yq_E413-OcBo4l-50" value="PK" style="shape=partialRectangle;connectable=0;fillColor=none;top=0;left=0;bottom=0;right=0;fontStyle=1;overflow=hidden;" vertex="1" parent="-sMg55yq_E413-OcBo4l-49">
          <mxGeometry width="30" height="30" as="geometry">
            <mxRectangle width="30" height="30" as="alternateBounds" />
          </mxGeometry>
        </mxCell>
        <mxCell id="-sMg55yq_E413-OcBo4l-51" value="Id" style="shape=partialRectangle;connectable=0;fillColor=none;top=0;left=0;bottom=0;right=0;align=left;spacingLeft=6;fontStyle=5;overflow=hidden;" vertex="1" parent="-sMg55yq_E413-OcBo4l-49">
          <mxGeometry x="30" width="150" height="30" as="geometry">
            <mxRectangle width="150" height="30" as="alternateBounds" />
          </mxGeometry>
        </mxCell>
        <mxCell id="-sMg55yq_E413-OcBo4l-52" value="" style="shape=tableRow;horizontal=0;startSize=0;swimlaneHead=0;swimlaneBody=0;fillColor=none;collapsible=0;dropTarget=0;points=[[0,0.5],[1,0.5]];portConstraint=eastwest;top=0;left=0;right=0;bottom=0;" vertex="1" parent="-sMg55yq_E413-OcBo4l-48">
          <mxGeometry y="60" width="180" height="30" as="geometry" />
        </mxCell>
        <mxCell id="-sMg55yq_E413-OcBo4l-53" value="" style="shape=partialRectangle;connectable=0;fillColor=none;top=0;left=0;bottom=0;right=0;editable=1;overflow=hidden;" vertex="1" parent="-sMg55yq_E413-OcBo4l-52">
          <mxGeometry width="30" height="30" as="geometry">
            <mxRectangle width="30" height="30" as="alternateBounds" />
          </mxGeometry>
        </mxCell>
        <mxCell id="-sMg55yq_E413-OcBo4l-54" value="ModelId" style="shape=partialRectangle;connectable=0;fillColor=none;top=0;left=0;bottom=0;right=0;align=left;spacingLeft=6;overflow=hidden;" vertex="1" parent="-sMg55yq_E413-OcBo4l-52">
          <mxGeometry x="30" width="150" height="30" as="geometry">
            <mxRectangle width="150" height="30" as="alternateBounds" />
          </mxGeometry>
        </mxCell>
        <mxCell id="-sMg55yq_E413-OcBo4l-68" value="" style="shape=tableRow;horizontal=0;startSize=0;swimlaneHead=0;swimlaneBody=0;fillColor=none;collapsible=0;dropTarget=0;points=[[0,0.5],[1,0.5]];portConstraint=eastwest;top=0;left=0;right=0;bottom=0;" vertex="1" parent="-sMg55yq_E413-OcBo4l-48">
          <mxGeometry y="90" width="180" height="30" as="geometry" />
        </mxCell>
        <mxCell id="-sMg55yq_E413-OcBo4l-69" value="" style="shape=partialRectangle;connectable=0;fillColor=none;top=0;left=0;bottom=0;right=0;editable=1;overflow=hidden;" vertex="1" parent="-sMg55yq_E413-OcBo4l-68">
          <mxGeometry width="30" height="30" as="geometry">
            <mxRectangle width="30" height="30" as="alternateBounds" />
          </mxGeometry>
        </mxCell>
        <mxCell id="-sMg55yq_E413-OcBo4l-70" value="SystemName" style="shape=partialRectangle;connectable=0;fillColor=none;top=0;left=0;bottom=0;right=0;align=left;spacingLeft=6;overflow=hidden;" vertex="1" parent="-sMg55yq_E413-OcBo4l-68">
          <mxGeometry x="30" width="150" height="30" as="geometry">
            <mxRectangle width="150" height="30" as="alternateBounds" />
          </mxGeometry>
        </mxCell>
        <mxCell id="-sMg55yq_E413-OcBo4l-55" value="" style="shape=tableRow;horizontal=0;startSize=0;swimlaneHead=0;swimlaneBody=0;fillColor=none;collapsible=0;dropTarget=0;points=[[0,0.5],[1,0.5]];portConstraint=eastwest;top=0;left=0;right=0;bottom=0;" vertex="1" parent="-sMg55yq_E413-OcBo4l-48">
          <mxGeometry y="120" width="180" height="30" as="geometry" />
        </mxCell>
        <mxCell id="-sMg55yq_E413-OcBo4l-56" value="" style="shape=partialRectangle;connectable=0;fillColor=none;top=0;left=0;bottom=0;right=0;editable=1;overflow=hidden;" vertex="1" parent="-sMg55yq_E413-OcBo4l-55">
          <mxGeometry width="30" height="30" as="geometry">
            <mxRectangle width="30" height="30" as="alternateBounds" />
          </mxGeometry>
        </mxCell>
        <mxCell id="-sMg55yq_E413-OcBo4l-57" value="Alias" style="shape=partialRectangle;connectable=0;fillColor=none;top=0;left=0;bottom=0;right=0;align=left;spacingLeft=6;overflow=hidden;" vertex="1" parent="-sMg55yq_E413-OcBo4l-55">
          <mxGeometry x="30" width="150" height="30" as="geometry">
            <mxRectangle width="150" height="30" as="alternateBounds" />
          </mxGeometry>
        </mxCell>
        <mxCell id="pt1gHQ7T1ihGLbBRqfMP-3" value="" style="shape=tableRow;horizontal=0;startSize=0;swimlaneHead=0;swimlaneBody=0;fillColor=none;collapsible=0;dropTarget=0;points=[[0,0.5],[1,0.5]];portConstraint=eastwest;top=0;left=0;right=0;bottom=0;" vertex="1" parent="-sMg55yq_E413-OcBo4l-48">
          <mxGeometry y="150" width="180" height="30" as="geometry" />
        </mxCell>
        <mxCell id="pt1gHQ7T1ihGLbBRqfMP-4" value="" style="shape=partialRectangle;connectable=0;fillColor=none;top=0;left=0;bottom=0;right=0;editable=1;overflow=hidden;" vertex="1" parent="pt1gHQ7T1ihGLbBRqfMP-3">
          <mxGeometry width="30" height="30" as="geometry">
            <mxRectangle width="30" height="30" as="alternateBounds" />
          </mxGeometry>
        </mxCell>
        <mxCell id="pt1gHQ7T1ihGLbBRqfMP-5" value="Comments" style="shape=partialRectangle;connectable=0;fillColor=none;top=0;left=0;bottom=0;right=0;align=left;spacingLeft=6;overflow=hidden;" vertex="1" parent="pt1gHQ7T1ihGLbBRqfMP-3">
          <mxGeometry x="30" width="150" height="30" as="geometry">
            <mxRectangle width="150" height="30" as="alternateBounds" />
          </mxGeometry>
        </mxCell>
        <mxCell id="-sMg55yq_E413-OcBo4l-58" value="" style="shape=tableRow;horizontal=0;startSize=0;swimlaneHead=0;swimlaneBody=0;fillColor=none;collapsible=0;dropTarget=0;points=[[0,0.5],[1,0.5]];portConstraint=eastwest;top=0;left=0;right=0;bottom=0;" vertex="1" parent="-sMg55yq_E413-OcBo4l-48">
          <mxGeometry y="180" width="180" height="30" as="geometry" />
        </mxCell>
        <mxCell id="-sMg55yq_E413-OcBo4l-59" value="" style="shape=partialRectangle;connectable=0;fillColor=none;top=0;left=0;bottom=0;right=0;editable=1;overflow=hidden;" vertex="1" parent="-sMg55yq_E413-OcBo4l-58">
          <mxGeometry width="30" height="30" as="geometry">
            <mxRectangle width="30" height="30" as="alternateBounds" />
          </mxGeometry>
        </mxCell>
        <mxCell id="-sMg55yq_E413-OcBo4l-60" value="IsRequired" style="shape=partialRectangle;connectable=0;fillColor=none;top=0;left=0;bottom=0;right=0;align=left;spacingLeft=6;overflow=hidden;" vertex="1" parent="-sMg55yq_E413-OcBo4l-58">
          <mxGeometry x="30" width="150" height="30" as="geometry">
            <mxRectangle width="150" height="30" as="alternateBounds" />
          </mxGeometry>
        </mxCell>
        <mxCell id="-sMg55yq_E413-OcBo4l-85" value="" style="shape=tableRow;horizontal=0;startSize=0;swimlaneHead=0;swimlaneBody=0;fillColor=none;collapsible=0;dropTarget=0;points=[[0,0.5],[1,0.5]];portConstraint=eastwest;top=0;left=0;right=0;bottom=0;" vertex="1" parent="-sMg55yq_E413-OcBo4l-48">
          <mxGeometry y="210" width="180" height="30" as="geometry" />
        </mxCell>
        <mxCell id="-sMg55yq_E413-OcBo4l-86" value="" style="shape=partialRectangle;connectable=0;fillColor=none;top=0;left=0;bottom=0;right=0;editable=1;overflow=hidden;" vertex="1" parent="-sMg55yq_E413-OcBo4l-85">
          <mxGeometry width="30" height="30" as="geometry">
            <mxRectangle width="30" height="30" as="alternateBounds" />
          </mxGeometry>
        </mxCell>
        <mxCell id="-sMg55yq_E413-OcBo4l-87" value="ReferencedModelId" style="shape=partialRectangle;connectable=0;fillColor=none;top=0;left=0;bottom=0;right=0;align=left;spacingLeft=6;overflow=hidden;" vertex="1" parent="-sMg55yq_E413-OcBo4l-85">
          <mxGeometry x="30" width="150" height="30" as="geometry">
            <mxRectangle width="150" height="30" as="alternateBounds" />
          </mxGeometry>
        </mxCell>
        <mxCell id="-sMg55yq_E413-OcBo4l-61" value="" style="shape=tableRow;horizontal=0;startSize=0;swimlaneHead=0;swimlaneBody=0;fillColor=none;collapsible=0;dropTarget=0;points=[[0,0.5],[1,0.5]];portConstraint=eastwest;top=0;left=0;right=0;bottom=0;" vertex="1" parent="-sMg55yq_E413-OcBo4l-48">
          <mxGeometry y="240" width="180" height="30" as="geometry" />
        </mxCell>
        <mxCell id="-sMg55yq_E413-OcBo4l-62" value="" style="shape=partialRectangle;connectable=0;fillColor=none;top=0;left=0;bottom=0;right=0;editable=1;overflow=hidden;" vertex="1" parent="-sMg55yq_E413-OcBo4l-61">
          <mxGeometry width="30" height="30" as="geometry">
            <mxRectangle width="30" height="30" as="alternateBounds" />
          </mxGeometry>
        </mxCell>
        <mxCell id="-sMg55yq_E413-OcBo4l-63" value="FieldTypeId" style="shape=partialRectangle;connectable=0;fillColor=none;top=0;left=0;bottom=0;right=0;align=left;spacingLeft=6;overflow=hidden;" vertex="1" parent="-sMg55yq_E413-OcBo4l-61">
          <mxGeometry x="30" width="150" height="30" as="geometry">
            <mxRectangle width="150" height="30" as="alternateBounds" />
          </mxGeometry>
        </mxCell>
        <mxCell id="-sMg55yq_E413-OcBo4l-64" value="" style="shape=tableRow;horizontal=0;startSize=0;swimlaneHead=0;swimlaneBody=0;fillColor=none;collapsible=0;dropTarget=0;points=[[0,0.5],[1,0.5]];portConstraint=eastwest;top=0;left=0;right=0;bottom=0;" vertex="1" parent="-sMg55yq_E413-OcBo4l-48">
          <mxGeometry y="270" width="180" height="30" as="geometry" />
        </mxCell>
        <mxCell id="-sMg55yq_E413-OcBo4l-65" value="" style="shape=partialRectangle;connectable=0;fillColor=none;top=0;left=0;bottom=0;right=0;editable=1;overflow=hidden;" vertex="1" parent="-sMg55yq_E413-OcBo4l-64">
          <mxGeometry width="30" height="30" as="geometry">
            <mxRectangle width="30" height="30" as="alternateBounds" />
          </mxGeometry>
        </mxCell>
        <mxCell id="-sMg55yq_E413-OcBo4l-66" value="FieldLenght" style="shape=partialRectangle;connectable=0;fillColor=none;top=0;left=0;bottom=0;right=0;align=left;spacingLeft=6;overflow=hidden;" vertex="1" parent="-sMg55yq_E413-OcBo4l-64">
          <mxGeometry x="30" width="150" height="30" as="geometry">
            <mxRectangle width="150" height="30" as="alternateBounds" />
          </mxGeometry>
        </mxCell>
        <mxCell id="-sMg55yq_E413-OcBo4l-71" value="ModelPropertyType" style="shape=table;startSize=30;container=1;collapsible=1;childLayout=tableLayout;fixedRows=1;rowLines=0;fontStyle=1;align=center;resizeLast=1;" vertex="1" parent="1">
          <mxGeometry x="650" y="580" width="180" height="150" as="geometry" />
        </mxCell>
        <mxCell id="-sMg55yq_E413-OcBo4l-72" value="" style="shape=tableRow;horizontal=0;startSize=0;swimlaneHead=0;swimlaneBody=0;fillColor=none;collapsible=0;dropTarget=0;points=[[0,0.5],[1,0.5]];portConstraint=eastwest;top=0;left=0;right=0;bottom=1;" vertex="1" parent="-sMg55yq_E413-OcBo4l-71">
          <mxGeometry y="30" width="180" height="30" as="geometry" />
        </mxCell>
        <mxCell id="-sMg55yq_E413-OcBo4l-73" value="PK" style="shape=partialRectangle;connectable=0;fillColor=none;top=0;left=0;bottom=0;right=0;fontStyle=1;overflow=hidden;" vertex="1" parent="-sMg55yq_E413-OcBo4l-72">
          <mxGeometry width="30" height="30" as="geometry">
            <mxRectangle width="30" height="30" as="alternateBounds" />
          </mxGeometry>
        </mxCell>
        <mxCell id="-sMg55yq_E413-OcBo4l-74" value="Id" style="shape=partialRectangle;connectable=0;fillColor=none;top=0;left=0;bottom=0;right=0;align=left;spacingLeft=6;fontStyle=5;overflow=hidden;" vertex="1" parent="-sMg55yq_E413-OcBo4l-72">
          <mxGeometry x="30" width="150" height="30" as="geometry">
            <mxRectangle width="150" height="30" as="alternateBounds" />
          </mxGeometry>
        </mxCell>
        <mxCell id="-sMg55yq_E413-OcBo4l-75" value="" style="shape=tableRow;horizontal=0;startSize=0;swimlaneHead=0;swimlaneBody=0;fillColor=none;collapsible=0;dropTarget=0;points=[[0,0.5],[1,0.5]];portConstraint=eastwest;top=0;left=0;right=0;bottom=0;" vertex="1" parent="-sMg55yq_E413-OcBo4l-71">
          <mxGeometry y="60" width="180" height="30" as="geometry" />
        </mxCell>
        <mxCell id="-sMg55yq_E413-OcBo4l-76" value="" style="shape=partialRectangle;connectable=0;fillColor=none;top=0;left=0;bottom=0;right=0;editable=1;overflow=hidden;" vertex="1" parent="-sMg55yq_E413-OcBo4l-75">
          <mxGeometry width="30" height="30" as="geometry">
            <mxRectangle width="30" height="30" as="alternateBounds" />
          </mxGeometry>
        </mxCell>
        <mxCell id="-sMg55yq_E413-OcBo4l-77" value="ClrTypeName" style="shape=partialRectangle;connectable=0;fillColor=none;top=0;left=0;bottom=0;right=0;align=left;spacingLeft=6;overflow=hidden;" vertex="1" parent="-sMg55yq_E413-OcBo4l-75">
          <mxGeometry x="30" width="150" height="30" as="geometry">
            <mxRectangle width="150" height="30" as="alternateBounds" />
          </mxGeometry>
        </mxCell>
        <mxCell id="-sMg55yq_E413-OcBo4l-78" value="" style="shape=tableRow;horizontal=0;startSize=0;swimlaneHead=0;swimlaneBody=0;fillColor=none;collapsible=0;dropTarget=0;points=[[0,0.5],[1,0.5]];portConstraint=eastwest;top=0;left=0;right=0;bottom=0;" vertex="1" parent="-sMg55yq_E413-OcBo4l-71">
          <mxGeometry y="90" width="180" height="30" as="geometry" />
        </mxCell>
        <mxCell id="-sMg55yq_E413-OcBo4l-79" value="" style="shape=partialRectangle;connectable=0;fillColor=none;top=0;left=0;bottom=0;right=0;editable=1;overflow=hidden;" vertex="1" parent="-sMg55yq_E413-OcBo4l-78">
          <mxGeometry width="30" height="30" as="geometry">
            <mxRectangle width="30" height="30" as="alternateBounds" />
          </mxGeometry>
        </mxCell>
        <mxCell id="-sMg55yq_E413-OcBo4l-80" value="" style="shape=partialRectangle;connectable=0;fillColor=none;top=0;left=0;bottom=0;right=0;align=left;spacingLeft=6;overflow=hidden;" vertex="1" parent="-sMg55yq_E413-OcBo4l-78">
          <mxGeometry x="30" width="150" height="30" as="geometry">
            <mxRectangle width="150" height="30" as="alternateBounds" />
          </mxGeometry>
        </mxCell>
        <mxCell id="-sMg55yq_E413-OcBo4l-81" value="" style="shape=tableRow;horizontal=0;startSize=0;swimlaneHead=0;swimlaneBody=0;fillColor=none;collapsible=0;dropTarget=0;points=[[0,0.5],[1,0.5]];portConstraint=eastwest;top=0;left=0;right=0;bottom=0;" vertex="1" parent="-sMg55yq_E413-OcBo4l-71">
          <mxGeometry y="120" width="180" height="30" as="geometry" />
        </mxCell>
        <mxCell id="-sMg55yq_E413-OcBo4l-82" value="" style="shape=partialRectangle;connectable=0;fillColor=none;top=0;left=0;bottom=0;right=0;editable=1;overflow=hidden;" vertex="1" parent="-sMg55yq_E413-OcBo4l-81">
          <mxGeometry width="30" height="30" as="geometry">
            <mxRectangle width="30" height="30" as="alternateBounds" />
          </mxGeometry>
        </mxCell>
        <mxCell id="-sMg55yq_E413-OcBo4l-83" value="" style="shape=partialRectangle;connectable=0;fillColor=none;top=0;left=0;bottom=0;right=0;align=left;spacingLeft=6;overflow=hidden;" vertex="1" parent="-sMg55yq_E413-OcBo4l-81">
          <mxGeometry x="30" width="150" height="30" as="geometry">
            <mxRectangle width="150" height="30" as="alternateBounds" />
          </mxGeometry>
        </mxCell>
        <mxCell id="-sMg55yq_E413-OcBo4l-88" value="PluginMigration" style="shape=table;startSize=30;container=1;collapsible=1;childLayout=tableLayout;fixedRows=1;rowLines=0;fontStyle=1;align=center;resizeLast=1;" vertex="1" parent="1">
          <mxGeometry x="90" y="500" width="180" height="160" as="geometry" />
        </mxCell>
        <mxCell id="-sMg55yq_E413-OcBo4l-89" value="" style="shape=tableRow;horizontal=0;startSize=0;swimlaneHead=0;swimlaneBody=0;fillColor=none;collapsible=0;dropTarget=0;points=[[0,0.5],[1,0.5]];portConstraint=eastwest;top=0;left=0;right=0;bottom=1;" vertex="1" parent="-sMg55yq_E413-OcBo4l-88">
          <mxGeometry y="30" width="180" height="30" as="geometry" />
        </mxCell>
        <mxCell id="-sMg55yq_E413-OcBo4l-90" value="PK" style="shape=partialRectangle;connectable=0;fillColor=none;top=0;left=0;bottom=0;right=0;fontStyle=1;overflow=hidden;" vertex="1" parent="-sMg55yq_E413-OcBo4l-89">
          <mxGeometry width="30" height="30" as="geometry">
            <mxRectangle width="30" height="30" as="alternateBounds" />
          </mxGeometry>
        </mxCell>
        <mxCell id="-sMg55yq_E413-OcBo4l-91" value="Id" style="shape=partialRectangle;connectable=0;fillColor=none;top=0;left=0;bottom=0;right=0;align=left;spacingLeft=6;fontStyle=5;overflow=hidden;" vertex="1" parent="-sMg55yq_E413-OcBo4l-89">
          <mxGeometry x="30" width="150" height="30" as="geometry">
            <mxRectangle width="150" height="30" as="alternateBounds" />
          </mxGeometry>
        </mxCell>
        <mxCell id="-sMg55yq_E413-OcBo4l-92" value="" style="shape=tableRow;horizontal=0;startSize=0;swimlaneHead=0;swimlaneBody=0;fillColor=none;collapsible=0;dropTarget=0;points=[[0,0.5],[1,0.5]];portConstraint=eastwest;top=0;left=0;right=0;bottom=0;" vertex="1" parent="-sMg55yq_E413-OcBo4l-88">
          <mxGeometry y="60" width="180" height="30" as="geometry" />
        </mxCell>
        <mxCell id="-sMg55yq_E413-OcBo4l-93" value="" style="shape=partialRectangle;connectable=0;fillColor=none;top=0;left=0;bottom=0;right=0;editable=1;overflow=hidden;" vertex="1" parent="-sMg55yq_E413-OcBo4l-92">
          <mxGeometry width="30" height="30" as="geometry">
            <mxRectangle width="30" height="30" as="alternateBounds" />
          </mxGeometry>
        </mxCell>
        <mxCell id="-sMg55yq_E413-OcBo4l-94" value="PluginId" style="shape=partialRectangle;connectable=0;fillColor=none;top=0;left=0;bottom=0;right=0;align=left;spacingLeft=6;overflow=hidden;" vertex="1" parent="-sMg55yq_E413-OcBo4l-92">
          <mxGeometry x="30" width="150" height="30" as="geometry">
            <mxRectangle width="150" height="30" as="alternateBounds" />
          </mxGeometry>
        </mxCell>
        <mxCell id="-sMg55yq_E413-OcBo4l-95" value="" style="shape=tableRow;horizontal=0;startSize=0;swimlaneHead=0;swimlaneBody=0;fillColor=none;collapsible=0;dropTarget=0;points=[[0,0.5],[1,0.5]];portConstraint=eastwest;top=0;left=0;right=0;bottom=0;" vertex="1" parent="-sMg55yq_E413-OcBo4l-88">
          <mxGeometry y="90" width="180" height="30" as="geometry" />
        </mxCell>
        <mxCell id="-sMg55yq_E413-OcBo4l-96" value="" style="shape=partialRectangle;connectable=0;fillColor=none;top=0;left=0;bottom=0;right=0;editable=1;overflow=hidden;" vertex="1" parent="-sMg55yq_E413-OcBo4l-95">
          <mxGeometry width="30" height="30" as="geometry">
            <mxRectangle width="30" height="30" as="alternateBounds" />
          </mxGeometry>
        </mxCell>
        <mxCell id="-sMg55yq_E413-OcBo4l-97" value="VersionId" style="shape=partialRectangle;connectable=0;fillColor=none;top=0;left=0;bottom=0;right=0;align=left;spacingLeft=6;overflow=hidden;" vertex="1" parent="-sMg55yq_E413-OcBo4l-95">
          <mxGeometry x="30" width="150" height="30" as="geometry">
            <mxRectangle width="150" height="30" as="alternateBounds" />
          </mxGeometry>
        </mxCell>
        <mxCell id="-sMg55yq_E413-OcBo4l-98" value="" style="shape=tableRow;horizontal=0;startSize=0;swimlaneHead=0;swimlaneBody=0;fillColor=none;collapsible=0;dropTarget=0;points=[[0,0.5],[1,0.5]];portConstraint=eastwest;top=0;left=0;right=0;bottom=0;" vertex="1" parent="-sMg55yq_E413-OcBo4l-88">
          <mxGeometry y="120" width="180" height="30" as="geometry" />
        </mxCell>
        <mxCell id="-sMg55yq_E413-OcBo4l-99" value="" style="shape=partialRectangle;connectable=0;fillColor=none;top=0;left=0;bottom=0;right=0;editable=1;overflow=hidden;" vertex="1" parent="-sMg55yq_E413-OcBo4l-98">
          <mxGeometry width="30" height="30" as="geometry">
            <mxRectangle width="30" height="30" as="alternateBounds" />
          </mxGeometry>
        </mxCell>
        <mxCell id="-sMg55yq_E413-OcBo4l-100" value="MigrationSourceCode" style="shape=partialRectangle;connectable=0;fillColor=none;top=0;left=0;bottom=0;right=0;align=left;spacingLeft=6;overflow=hidden;" vertex="1" parent="-sMg55yq_E413-OcBo4l-98">
          <mxGeometry x="30" width="150" height="30" as="geometry">
            <mxRectangle width="150" height="30" as="alternateBounds" />
          </mxGeometry>
        </mxCell>
        <mxCell id="-sMg55yq_E413-OcBo4l-101" value="PluginVersion" style="shape=table;startSize=30;container=1;collapsible=1;childLayout=tableLayout;fixedRows=1;rowLines=0;fontStyle=1;align=center;resizeLast=1;" vertex="1" parent="1">
          <mxGeometry x="370" y="410" width="180" height="150" as="geometry" />
        </mxCell>
        <mxCell id="-sMg55yq_E413-OcBo4l-102" value="" style="shape=tableRow;horizontal=0;startSize=0;swimlaneHead=0;swimlaneBody=0;fillColor=none;collapsible=0;dropTarget=0;points=[[0,0.5],[1,0.5]];portConstraint=eastwest;top=0;left=0;right=0;bottom=1;" vertex="1" parent="-sMg55yq_E413-OcBo4l-101">
          <mxGeometry y="30" width="180" height="30" as="geometry" />
        </mxCell>
        <mxCell id="-sMg55yq_E413-OcBo4l-103" value="PK" style="shape=partialRectangle;connectable=0;fillColor=none;top=0;left=0;bottom=0;right=0;fontStyle=1;overflow=hidden;" vertex="1" parent="-sMg55yq_E413-OcBo4l-102">
          <mxGeometry width="30" height="30" as="geometry">
            <mxRectangle width="30" height="30" as="alternateBounds" />
          </mxGeometry>
        </mxCell>
        <mxCell id="-sMg55yq_E413-OcBo4l-104" value="Id" style="shape=partialRectangle;connectable=0;fillColor=none;top=0;left=0;bottom=0;right=0;align=left;spacingLeft=6;fontStyle=5;overflow=hidden;" vertex="1" parent="-sMg55yq_E413-OcBo4l-102">
          <mxGeometry x="30" width="150" height="30" as="geometry">
            <mxRectangle width="150" height="30" as="alternateBounds" />
          </mxGeometry>
        </mxCell>
        <mxCell id="-sMg55yq_E413-OcBo4l-105" value="" style="shape=tableRow;horizontal=0;startSize=0;swimlaneHead=0;swimlaneBody=0;fillColor=none;collapsible=0;dropTarget=0;points=[[0,0.5],[1,0.5]];portConstraint=eastwest;top=0;left=0;right=0;bottom=0;" vertex="1" parent="-sMg55yq_E413-OcBo4l-101">
          <mxGeometry y="60" width="180" height="30" as="geometry" />
        </mxCell>
        <mxCell id="-sMg55yq_E413-OcBo4l-106" value="" style="shape=partialRectangle;connectable=0;fillColor=none;top=0;left=0;bottom=0;right=0;editable=1;overflow=hidden;" vertex="1" parent="-sMg55yq_E413-OcBo4l-105">
          <mxGeometry width="30" height="30" as="geometry">
            <mxRectangle width="30" height="30" as="alternateBounds" />
          </mxGeometry>
        </mxCell>
        <mxCell id="-sMg55yq_E413-OcBo4l-107" value="PluginId" style="shape=partialRectangle;connectable=0;fillColor=none;top=0;left=0;bottom=0;right=0;align=left;spacingLeft=6;overflow=hidden;" vertex="1" parent="-sMg55yq_E413-OcBo4l-105">
          <mxGeometry x="30" width="150" height="30" as="geometry">
            <mxRectangle width="150" height="30" as="alternateBounds" />
          </mxGeometry>
        </mxCell>
        <mxCell id="-sMg55yq_E413-OcBo4l-108" value="" style="shape=tableRow;horizontal=0;startSize=0;swimlaneHead=0;swimlaneBody=0;fillColor=none;collapsible=0;dropTarget=0;points=[[0,0.5],[1,0.5]];portConstraint=eastwest;top=0;left=0;right=0;bottom=0;" vertex="1" parent="-sMg55yq_E413-OcBo4l-101">
          <mxGeometry y="90" width="180" height="30" as="geometry" />
        </mxCell>
        <mxCell id="-sMg55yq_E413-OcBo4l-109" value="" style="shape=partialRectangle;connectable=0;fillColor=none;top=0;left=0;bottom=0;right=0;editable=1;overflow=hidden;" vertex="1" parent="-sMg55yq_E413-OcBo4l-108">
          <mxGeometry width="30" height="30" as="geometry">
            <mxRectangle width="30" height="30" as="alternateBounds" />
          </mxGeometry>
        </mxCell>
        <mxCell id="-sMg55yq_E413-OcBo4l-110" value="Version" style="shape=partialRectangle;connectable=0;fillColor=none;top=0;left=0;bottom=0;right=0;align=left;spacingLeft=6;overflow=hidden;" vertex="1" parent="-sMg55yq_E413-OcBo4l-108">
          <mxGeometry x="30" width="150" height="30" as="geometry">
            <mxRectangle width="150" height="30" as="alternateBounds" />
          </mxGeometry>
        </mxCell>
        <mxCell id="-sMg55yq_E413-OcBo4l-111" value="" style="shape=tableRow;horizontal=0;startSize=0;swimlaneHead=0;swimlaneBody=0;fillColor=none;collapsible=0;dropTarget=0;points=[[0,0.5],[1,0.5]];portConstraint=eastwest;top=0;left=0;right=0;bottom=0;" vertex="1" parent="-sMg55yq_E413-OcBo4l-101">
          <mxGeometry y="120" width="180" height="30" as="geometry" />
        </mxCell>
        <mxCell id="-sMg55yq_E413-OcBo4l-112" value="" style="shape=partialRectangle;connectable=0;fillColor=none;top=0;left=0;bottom=0;right=0;editable=1;overflow=hidden;" vertex="1" parent="-sMg55yq_E413-OcBo4l-111">
          <mxGeometry width="30" height="30" as="geometry">
            <mxRectangle width="30" height="30" as="alternateBounds" />
          </mxGeometry>
        </mxCell>
        <mxCell id="-sMg55yq_E413-OcBo4l-113" value="" style="shape=partialRectangle;connectable=0;fillColor=none;top=0;left=0;bottom=0;right=0;align=left;spacingLeft=6;overflow=hidden;" vertex="1" parent="-sMg55yq_E413-OcBo4l-111">
          <mxGeometry x="30" width="150" height="30" as="geometry">
            <mxRectangle width="150" height="30" as="alternateBounds" />
          </mxGeometry>
        </mxCell>
        <mxCell id="-sMg55yq_E413-OcBo4l-115" style="edgeStyle=orthogonalEdgeStyle;rounded=0;orthogonalLoop=1;jettySize=auto;html=1;" edge="1" parent="1" source="-sMg55yq_E413-OcBo4l-2" target="-sMg55yq_E413-OcBo4l-92">
          <mxGeometry relative="1" as="geometry">
            <Array as="points">
              <mxPoint x="40" y="115" />
              <mxPoint x="40" y="575" />
            </Array>
          </mxGeometry>
        </mxCell>
        <mxCell id="-sMg55yq_E413-OcBo4l-116" style="edgeStyle=orthogonalEdgeStyle;rounded=0;orthogonalLoop=1;jettySize=auto;html=1;" edge="1" parent="1" source="-sMg55yq_E413-OcBo4l-102" target="-sMg55yq_E413-OcBo4l-95">
          <mxGeometry relative="1" as="geometry" />
        </mxCell>
        <mxCell id="pt1gHQ7T1ihGLbBRqfMP-2" style="edgeStyle=orthogonalEdgeStyle;rounded=0;orthogonalLoop=1;jettySize=auto;html=1;entryX=1;entryY=0.5;entryDx=0;entryDy=0;fontSize=13;" edge="1" parent="1" source="-sMg55yq_E413-OcBo4l-2" target="-sMg55yq_E413-OcBo4l-105">
          <mxGeometry relative="1" as="geometry">
            <Array as="points">
              <mxPoint x="600" y="115" />
              <mxPoint x="600" y="485" />
            </Array>
          </mxGeometry>
        </mxCell>
        <mxCell id="pt1gHQ7T1ihGLbBRqfMP-6" style="edgeStyle=orthogonalEdgeStyle;rounded=0;orthogonalLoop=1;jettySize=auto;html=1;fontSize=13;" edge="1" parent="1" source="-sMg55yq_E413-OcBo4l-72" target="-sMg55yq_E413-OcBo4l-61">
          <mxGeometry relative="1" as="geometry">
            <Array as="points">
              <mxPoint x="870" y="625" />
              <mxPoint x="870" y="435" />
            </Array>
          </mxGeometry>
        </mxCell>
        <mxCell id="pt1gHQ7T1ihGLbBRqfMP-7" style="edgeStyle=orthogonalEdgeStyle;rounded=0;orthogonalLoop=1;jettySize=auto;html=1;fontSize=13;" edge="1" parent="1" source="-sMg55yq_E413-OcBo4l-29" target="-sMg55yq_E413-OcBo4l-85">
          <mxGeometry relative="1" as="geometry">
            <Array as="points">
              <mxPoint x="870" y="85" />
              <mxPoint x="870" y="405" />
            </Array>
          </mxGeometry>
        </mxCell>
      </root>
    </mxGraphModel>
  </diagram>
  <diagram id="a09yNDapUuXAvBnfM2Tt" name="TopLevelArhitect">
    <mxGraphModel dx="1673" dy="829" grid="1" gridSize="10" guides="1" tooltips="1" connect="1" arrows="1" fold="1" page="1" pageScale="1" pageWidth="1169" pageHeight="827" math="0" shadow="0">
      <root>
        <mxCell id="0" />
        <mxCell id="1" parent="0" />
        <mxCell id="lVMgmIaOudMmXFDj-p6S-11" value="" style="group" vertex="1" connectable="0" parent="1">
          <mxGeometry x="500" y="550" width="170" height="270" as="geometry" />
        </mxCell>
        <mxCell id="lVMgmIaOudMmXFDj-p6S-1" value="" style="shadow=0;dashed=0;html=1;strokeColor=none;labelPosition=center;verticalLabelPosition=bottom;verticalAlign=top;outlineConnect=0;align=center;shape=mxgraph.office.databases.database;fillColor=#DA4026;opacity=30;" vertex="1" parent="lVMgmIaOudMmXFDj-p6S-11">
          <mxGeometry width="170" height="270" as="geometry" />
        </mxCell>
        <mxCell id="lVMgmIaOudMmXFDj-p6S-9" value="" style="group" vertex="1" connectable="0" parent="lVMgmIaOudMmXFDj-p6S-11">
          <mxGeometry x="30" y="80" width="120" height="180" as="geometry" />
        </mxCell>
        <mxCell id="lVMgmIaOudMmXFDj-p6S-3" value="&lt;font style=&quot;font-size: 18px;&quot;&gt;ST.Core&lt;/font&gt;" style="whiteSpace=wrap;html=1;" vertex="1" parent="lVMgmIaOudMmXFDj-p6S-9">
          <mxGeometry width="120" height="60" as="geometry" />
        </mxCell>
        <mxCell id="lVMgmIaOudMmXFDj-p6S-5" value="&lt;font style=&quot;font-size: 16px;&quot;&gt;ST.Metadata&lt;/font&gt;" style="whiteSpace=wrap;html=1;" vertex="1" parent="lVMgmIaOudMmXFDj-p6S-9">
          <mxGeometry y="60" width="120" height="60" as="geometry" />
        </mxCell>
        <mxCell id="lVMgmIaOudMmXFDj-p6S-7" value="&lt;font style=&quot;font-size: 19px;&quot;&gt;UserModels&lt;/font&gt;" style="whiteSpace=wrap;html=1;" vertex="1" parent="lVMgmIaOudMmXFDj-p6S-9">
          <mxGeometry y="120" width="120" height="60" as="geometry" />
        </mxCell>
        <mxCell id="lVMgmIaOudMmXFDj-p6S-19" style="edgeStyle=orthogonalEdgeStyle;rounded=0;orthogonalLoop=1;jettySize=auto;html=1;fontSize=19;" edge="1" parent="1" source="lVMgmIaOudMmXFDj-p6S-14" target="lVMgmIaOudMmXFDj-p6S-15">
          <mxGeometry relative="1" as="geometry">
            <mxPoint x="230" y="340" as="targetPoint" />
          </mxGeometry>
        </mxCell>
        <mxCell id="lVMgmIaOudMmXFDj-p6S-35" style="edgeStyle=orthogonalEdgeStyle;rounded=0;orthogonalLoop=1;jettySize=auto;html=1;fontSize=19;entryX=0.5;entryY=0;entryDx=0;entryDy=0;entryPerimeter=0;" edge="1" parent="1" source="lVMgmIaOudMmXFDj-p6S-14" target="lVMgmIaOudMmXFDj-p6S-20">
          <mxGeometry relative="1" as="geometry">
            <Array as="points">
              <mxPoint x="351" y="364" />
              <mxPoint x="351" y="90" />
              <mxPoint x="585" y="90" />
            </Array>
          </mxGeometry>
        </mxCell>
        <mxCell id="lVMgmIaOudMmXFDj-p6S-36" value="Состояние выполнения задач" style="edgeLabel;html=1;align=center;verticalAlign=middle;resizable=0;points=[];fontSize=19;" vertex="1" connectable="0" parent="lVMgmIaOudMmXFDj-p6S-35">
          <mxGeometry x="0.4012" relative="1" as="geometry">
            <mxPoint as="offset" />
          </mxGeometry>
        </mxCell>
        <mxCell id="lVMgmIaOudMmXFDj-p6S-14" value="Админка с модулем &lt;br&gt;управления метаданных" style="sketch=0;pointerEvents=1;shadow=0;dashed=0;html=1;strokeColor=none;fillColor=#505050;labelPosition=center;verticalLabelPosition=bottom;verticalAlign=top;outlineConnect=0;align=center;shape=mxgraph.office.concepts.application_web;fontSize=19;" vertex="1" parent="1">
          <mxGeometry x="60" y="314" width="140" height="100" as="geometry" />
        </mxCell>
        <mxCell id="lVMgmIaOudMmXFDj-p6S-17" style="edgeStyle=orthogonalEdgeStyle;rounded=0;orthogonalLoop=1;jettySize=auto;html=1;entryX=0;entryY=0.5;entryDx=0;entryDy=0;fontSize=19;" edge="1" parent="1" source="lVMgmIaOudMmXFDj-p6S-15" target="lVMgmIaOudMmXFDj-p6S-5">
          <mxGeometry relative="1" as="geometry" />
        </mxCell>
        <mxCell id="lVMgmIaOudMmXFDj-p6S-18" style="edgeStyle=orthogonalEdgeStyle;rounded=0;orthogonalLoop=1;jettySize=auto;html=1;entryX=0;entryY=0.5;entryDx=0;entryDy=0;fontSize=19;" edge="1" parent="1" source="lVMgmIaOudMmXFDj-p6S-15" target="lVMgmIaOudMmXFDj-p6S-3">
          <mxGeometry relative="1" as="geometry" />
        </mxCell>
        <mxCell id="lVMgmIaOudMmXFDj-p6S-22" style="edgeStyle=orthogonalEdgeStyle;rounded=0;orthogonalLoop=1;jettySize=auto;html=1;fontSize=19;" edge="1" parent="1" source="lVMgmIaOudMmXFDj-p6S-15" target="lVMgmIaOudMmXFDj-p6S-21">
          <mxGeometry relative="1" as="geometry" />
        </mxCell>
        <mxCell id="lVMgmIaOudMmXFDj-p6S-23" value="Задачи на сборку" style="edgeLabel;html=1;align=center;verticalAlign=middle;resizable=0;points=[];fontSize=19;" vertex="1" connectable="0" parent="lVMgmIaOudMmXFDj-p6S-22">
          <mxGeometry x="-0.2796" y="-3" relative="1" as="geometry">
            <mxPoint as="offset" />
          </mxGeometry>
        </mxCell>
        <mxCell id="lVMgmIaOudMmXFDj-p6S-15" value="SmartTwin&amp;nbsp;&lt;br&gt;Настройка метаданных" style="verticalLabelPosition=bottom;aspect=fixed;html=1;verticalAlign=top;strokeColor=none;align=center;outlineConnect=0;shape=mxgraph.citrix.web_server;gradientColor=none;opacity=30;fontSize=19;" vertex="1" parent="1">
          <mxGeometry x="210" y="490" width="76.5" height="90" as="geometry" />
        </mxCell>
        <mxCell id="lVMgmIaOudMmXFDj-p6S-40" style="edgeStyle=orthogonalEdgeStyle;rounded=0;orthogonalLoop=1;jettySize=auto;html=1;entryX=0.5;entryY=0;entryDx=0;entryDy=0;fontSize=19;" edge="1" parent="1" source="lVMgmIaOudMmXFDj-p6S-20" target="lVMgmIaOudMmXFDj-p6S-38">
          <mxGeometry relative="1" as="geometry" />
        </mxCell>
        <mxCell id="lVMgmIaOudMmXFDj-p6S-41" value="Формирует" style="edgeLabel;html=1;align=center;verticalAlign=middle;resizable=0;points=[];fontSize=19;" vertex="1" connectable="0" parent="lVMgmIaOudMmXFDj-p6S-40">
          <mxGeometry x="-0.5113" y="1" relative="1" as="geometry">
            <mxPoint as="offset" />
          </mxGeometry>
        </mxCell>
        <mxCell id="lVMgmIaOudMmXFDj-p6S-20" value="Служба сборки релизова" style="html=1;strokeColor=none;fillColor=#0079D6;labelPosition=center;verticalLabelPosition=middle;verticalAlign=top;align=center;fontSize=12;outlineConnect=0;spacingTop=-6;fontColor=#FFFFFF;sketch=0;shape=mxgraph.sitemap.services;" vertex="1" parent="1">
          <mxGeometry x="502" y="160" width="165" height="100" as="geometry" />
        </mxCell>
        <mxCell id="lVMgmIaOudMmXFDj-p6S-29" style="edgeStyle=orthogonalEdgeStyle;rounded=0;orthogonalLoop=1;jettySize=auto;html=1;fontSize=19;" edge="1" parent="1" source="lVMgmIaOudMmXFDj-p6S-21" target="lVMgmIaOudMmXFDj-p6S-20">
          <mxGeometry relative="1" as="geometry" />
        </mxCell>
        <mxCell id="lVMgmIaOudMmXFDj-p6S-21" value="" style="fillColor=#c0f5a9;dashed=0;outlineConnect=0;strokeWidth=2;html=1;align=center;fontSize=8;verticalLabelPosition=bottom;verticalAlign=top;shape=mxgraph.eip.event_driven_consumer;opacity=30;" vertex="1" parent="1">
          <mxGeometry x="450" y="400" width="270" height="40" as="geometry" />
        </mxCell>
        <mxCell id="lVMgmIaOudMmXFDj-p6S-28" style="edgeStyle=orthogonalEdgeStyle;rounded=0;orthogonalLoop=1;jettySize=auto;html=1;entryX=0.523;entryY=0.444;entryDx=0;entryDy=0;entryPerimeter=0;fontSize=19;" edge="1" parent="1" source="lVMgmIaOudMmXFDj-p6S-25" target="lVMgmIaOudMmXFDj-p6S-26">
          <mxGeometry relative="1" as="geometry">
            <Array as="points">
              <mxPoint x="1050" y="510" />
            </Array>
          </mxGeometry>
        </mxCell>
        <mxCell id="lVMgmIaOudMmXFDj-p6S-25" value="Целевое приложение&amp;nbsp;" style="sketch=0;pointerEvents=1;shadow=0;dashed=0;html=1;strokeColor=none;fillColor=#111750;labelPosition=center;verticalLabelPosition=bottom;verticalAlign=top;outlineConnect=0;align=center;shape=mxgraph.office.concepts.application_web;fontSize=19;" vertex="1" parent="1">
          <mxGeometry x="960" y="294" width="150" height="120" as="geometry" />
        </mxCell>
        <mxCell id="lVMgmIaOudMmXFDj-p6S-27" style="edgeStyle=orthogonalEdgeStyle;rounded=0;orthogonalLoop=1;jettySize=auto;html=1;entryX=1;entryY=0.75;entryDx=0;entryDy=0;fontSize=19;" edge="1" parent="1" source="lVMgmIaOudMmXFDj-p6S-26" target="lVMgmIaOudMmXFDj-p6S-7">
          <mxGeometry relative="1" as="geometry" />
        </mxCell>
        <mxCell id="lVMgmIaOudMmXFDj-p6S-42" style="edgeStyle=orthogonalEdgeStyle;rounded=0;orthogonalLoop=1;jettySize=auto;html=1;fontSize=19;" edge="1" parent="1" source="lVMgmIaOudMmXFDj-p6S-26" target="lVMgmIaOudMmXFDj-p6S-38">
          <mxGeometry relative="1" as="geometry" />
        </mxCell>
        <mxCell id="lVMgmIaOudMmXFDj-p6S-43" value="Apply" style="edgeLabel;html=1;align=center;verticalAlign=middle;resizable=0;points=[];fontSize=19;" vertex="1" connectable="0" parent="lVMgmIaOudMmXFDj-p6S-42">
          <mxGeometry x="0.259" y="4" relative="1" as="geometry">
            <mxPoint as="offset" />
          </mxGeometry>
        </mxCell>
        <mxCell id="lVMgmIaOudMmXFDj-p6S-26" value="Backend &lt;br&gt;целевого приложения&lt;br&gt;" style="verticalLabelPosition=bottom;aspect=fixed;html=1;verticalAlign=top;strokeColor=none;align=center;outlineConnect=0;shape=mxgraph.citrix.web_server;gradientColor=none;opacity=30;fontSize=19;" vertex="1" parent="1">
          <mxGeometry x="792" y="470" width="76.5" height="90" as="geometry" />
        </mxCell>
        <mxCell id="lVMgmIaOudMmXFDj-p6S-31" style="edgeStyle=orthogonalEdgeStyle;rounded=0;orthogonalLoop=1;jettySize=auto;html=1;fontSize=19;" edge="1" parent="1" source="lVMgmIaOudMmXFDj-p6S-30" target="lVMgmIaOudMmXFDj-p6S-14">
          <mxGeometry relative="1" as="geometry" />
        </mxCell>
        <mxCell id="lVMgmIaOudMmXFDj-p6S-30" value="Администратор &lt;br&gt;приложения" style="shape=umlActor;verticalLabelPosition=bottom;verticalAlign=top;html=1;outlineConnect=0;fontSize=19;fillColor=#111750;" vertex="1" parent="1">
          <mxGeometry x="210" y="110" width="30" height="60" as="geometry" />
        </mxCell>
        <mxCell id="lVMgmIaOudMmXFDj-p6S-33" style="edgeStyle=orthogonalEdgeStyle;rounded=0;orthogonalLoop=1;jettySize=auto;html=1;fontSize=19;" edge="1" parent="1" source="lVMgmIaOudMmXFDj-p6S-32" target="lVMgmIaOudMmXFDj-p6S-25">
          <mxGeometry relative="1" as="geometry" />
        </mxCell>
        <mxCell id="lVMgmIaOudMmXFDj-p6S-32" value="Обычный &lt;br&gt;пользователь" style="shape=umlActor;verticalLabelPosition=bottom;verticalAlign=top;html=1;outlineConnect=0;fontSize=19;fillColor=#111750;" vertex="1" parent="1">
          <mxGeometry x="890" y="100" width="30" height="60" as="geometry" />
        </mxCell>
        <mxCell id="lVMgmIaOudMmXFDj-p6S-38" value="" style="shape=image;html=1;verticalAlign=top;verticalLabelPosition=bottom;labelBackgroundColor=#ffffff;imageAspect=0;aspect=fixed;image=https://cdn3.iconfinder.com/data/icons/dompicon-glyph-file-format-2/256/file-dll-format-type-128.png;fontSize=19;fillColor=#111750;" vertex="1" parent="1">
          <mxGeometry x="790" y="270" width="80" height="80" as="geometry" />
        </mxCell>
      </root>
    </mxGraphModel>
  </diagram>
  <diagram id="UQywmeMBZd6ry-fyDQpy" name="Sequense">
    <mxGraphModel dx="2031" dy="1007" grid="1" gridSize="10" guides="1" tooltips="1" connect="1" arrows="1" fold="1" page="1" pageScale="1" pageWidth="1169" pageHeight="827" math="0" shadow="0">
      <root>
        <mxCell id="0" />
        <mxCell id="1" parent="0" />
        <mxCell id="kNs5IAvF1LjbgY-Ugxbg-4" value="Настройка метаданных" style="shape=umlLifeline;perimeter=lifelinePerimeter;whiteSpace=wrap;html=1;container=1;collapsible=0;recursiveResize=0;outlineConnect=0;fontSize=16;fillColor=none;" vertex="1" parent="1">
          <mxGeometry x="40" y="30" width="170" height="740" as="geometry" />
        </mxCell>
        <mxCell id="tHmdUMtizrbjo5yaiY6M-7" value="" style="html=1;points=[];perimeter=orthogonalPerimeter;fontSize=19;fillColor=none;" vertex="1" parent="kNs5IAvF1LjbgY-Ugxbg-4">
          <mxGeometry x="80" y="90" width="10" height="70" as="geometry" />
        </mxCell>
        <mxCell id="tHmdUMtizrbjo5yaiY6M-8" value="&lt;font style=&quot;font-size: 13px;&quot;&gt;Metadata Version Commit&lt;/font&gt;" style="edgeStyle=orthogonalEdgeStyle;html=1;align=left;spacingLeft=2;endArrow=block;rounded=0;entryX=1;entryY=0;fontSize=19;" edge="1" target="tHmdUMtizrbjo5yaiY6M-7" parent="kNs5IAvF1LjbgY-Ugxbg-4">
          <mxGeometry relative="1" as="geometry">
            <mxPoint x="85" y="70" as="sourcePoint" />
            <Array as="points">
              <mxPoint x="115" y="70" />
            </Array>
          </mxGeometry>
        </mxCell>
        <mxCell id="tHmdUMtizrbjo5yaiY6M-1" value="Служба сборки и развертывания" style="shape=umlLifeline;perimeter=lifelinePerimeter;whiteSpace=wrap;html=1;container=1;collapsible=0;recursiveResize=0;outlineConnect=0;fontSize=16;fillColor=none;" vertex="1" parent="1">
          <mxGeometry x="420" y="30" width="210" height="740" as="geometry" />
        </mxCell>
        <mxCell id="tHmdUMtizrbjo5yaiY6M-9" value="" style="html=1;points=[];perimeter=orthogonalPerimeter;fontSize=19;fillColor=none;" vertex="1" parent="tHmdUMtizrbjo5yaiY6M-1">
          <mxGeometry x="100" y="90" width="10" height="70" as="geometry" />
        </mxCell>
        <mxCell id="tHmdUMtizrbjo5yaiY6M-14" value="" style="html=1;points=[];perimeter=orthogonalPerimeter;fontSize=13;fillColor=none;" vertex="1" parent="tHmdUMtizrbjo5yaiY6M-1">
          <mxGeometry x="100" y="180" width="10" height="40" as="geometry" />
        </mxCell>
        <mxCell id="tHmdUMtizrbjo5yaiY6M-15" value="Создание и компиляция &lt;br&gt;плагина" style="edgeStyle=orthogonalEdgeStyle;html=1;align=left;spacingLeft=2;endArrow=block;rounded=0;entryX=1;entryY=0;fontSize=13;" edge="1" target="tHmdUMtizrbjo5yaiY6M-14" parent="tHmdUMtizrbjo5yaiY6M-1">
          <mxGeometry relative="1" as="geometry">
            <mxPoint x="105" y="160" as="sourcePoint" />
            <Array as="points">
              <mxPoint x="135" y="160" />
            </Array>
          </mxGeometry>
        </mxCell>
        <mxCell id="tHmdUMtizrbjo5yaiY6M-16" value="" style="html=1;points=[];perimeter=orthogonalPerimeter;fontSize=16;fillColor=none;" vertex="1" parent="tHmdUMtizrbjo5yaiY6M-1">
          <mxGeometry x="100" y="240" width="10" height="40" as="geometry" />
        </mxCell>
        <mxCell id="tHmdUMtizrbjo5yaiY6M-17" value="&lt;span style=&quot;font-size: 13px;&quot;&gt;Создание и компиляция&amp;nbsp;&lt;br&gt;сборки с миграциями&lt;br&gt;&lt;/span&gt;" style="edgeStyle=orthogonalEdgeStyle;html=1;align=left;spacingLeft=2;endArrow=block;rounded=0;entryX=1;entryY=0;fontSize=16;" edge="1" target="tHmdUMtizrbjo5yaiY6M-16" parent="tHmdUMtizrbjo5yaiY6M-1">
          <mxGeometry relative="1" as="geometry">
            <mxPoint x="105" y="220" as="sourcePoint" />
            <Array as="points">
              <mxPoint x="135" y="220" />
            </Array>
          </mxGeometry>
        </mxCell>
        <mxCell id="tHmdUMtizrbjo5yaiY6M-22" value="" style="html=1;points=[];perimeter=orthogonalPerimeter;fontSize=13;fillColor=none;" vertex="1" parent="tHmdUMtizrbjo5yaiY6M-1">
          <mxGeometry x="100" y="350" width="10" height="80" as="geometry" />
        </mxCell>
        <mxCell id="tHmdUMtizrbjo5yaiY6M-26" value="" style="html=1;points=[];perimeter=orthogonalPerimeter;fontSize=13;fillColor=none;" vertex="1" parent="tHmdUMtizrbjo5yaiY6M-1">
          <mxGeometry x="100" y="450" width="10" height="40" as="geometry" />
        </mxCell>
        <mxCell id="tHmdUMtizrbjo5yaiY6M-27" value="Копирование сборок по месту развертывания приложения&lt;br&gt;Применение миграций&lt;br&gt;Запуска приложения" style="edgeStyle=orthogonalEdgeStyle;html=1;align=left;spacingLeft=2;endArrow=block;rounded=0;entryX=1;entryY=0;fontSize=13;" edge="1" target="tHmdUMtizrbjo5yaiY6M-26" parent="tHmdUMtizrbjo5yaiY6M-1">
          <mxGeometry relative="1" as="geometry">
            <mxPoint x="105" y="430" as="sourcePoint" />
            <Array as="points">
              <mxPoint x="135" y="430" />
            </Array>
          </mxGeometry>
        </mxCell>
        <mxCell id="tHmdUMtizrbjo5yaiY6M-28" value="" style="html=1;points=[];perimeter=orthogonalPerimeter;fontSize=13;fillColor=none;" vertex="1" parent="tHmdUMtizrbjo5yaiY6M-1">
          <mxGeometry x="100" y="550" width="10" height="80" as="geometry" />
        </mxCell>
        <mxCell id="tHmdUMtizrbjo5yaiY6M-29" value="" style="html=1;points=[];perimeter=orthogonalPerimeter;fontSize=13;fillColor=none;" vertex="1" parent="tHmdUMtizrbjo5yaiY6M-1">
          <mxGeometry x="100" y="640" width="10" height="40" as="geometry" />
        </mxCell>
        <mxCell id="tHmdUMtizrbjo5yaiY6M-30" value="Оповещение инициатора и заинтересованных" style="edgeStyle=orthogonalEdgeStyle;html=1;align=left;spacingLeft=2;endArrow=block;rounded=0;entryX=1;entryY=0;fontSize=13;" edge="1" target="tHmdUMtizrbjo5yaiY6M-29" parent="tHmdUMtizrbjo5yaiY6M-1">
          <mxGeometry relative="1" as="geometry">
            <mxPoint x="105" y="620" as="sourcePoint" />
            <Array as="points">
              <mxPoint x="135" y="620" />
            </Array>
          </mxGeometry>
        </mxCell>
        <mxCell id="tHmdUMtizrbjo5yaiY6M-2" value="Целевое приложение" style="shape=umlLifeline;perimeter=lifelinePerimeter;whiteSpace=wrap;html=1;container=1;collapsible=0;recursiveResize=0;outlineConnect=0;fontSize=15;fillColor=none;" vertex="1" parent="1">
          <mxGeometry x="920" y="30" width="160" height="750" as="geometry" />
        </mxCell>
        <mxCell id="tHmdUMtizrbjo5yaiY6M-19" value="" style="html=1;points=[];perimeter=orthogonalPerimeter;fontSize=13;fillColor=none;" vertex="1" parent="tHmdUMtizrbjo5yaiY6M-2">
          <mxGeometry x="75" y="280" width="10" height="80" as="geometry" />
        </mxCell>
        <mxCell id="tHmdUMtizrbjo5yaiY6M-21" value="return" style="html=1;verticalAlign=bottom;endArrow=open;dashed=1;endSize=8;rounded=0;fontSize=13;entryX=1.1;entryY=0.113;entryDx=0;entryDy=0;entryPerimeter=0;" edge="1" parent="tHmdUMtizrbjo5yaiY6M-2" target="tHmdUMtizrbjo5yaiY6M-22">
          <mxGeometry relative="1" as="geometry">
            <mxPoint x="70" y="360" as="sourcePoint" />
            <mxPoint x="-380" y="360" as="targetPoint" />
          </mxGeometry>
        </mxCell>
        <mxCell id="tHmdUMtizrbjo5yaiY6M-23" value="" style="html=1;points=[];perimeter=orthogonalPerimeter;fontSize=13;fillColor=none;" vertex="1" parent="tHmdUMtizrbjo5yaiY6M-2">
          <mxGeometry x="75" y="485" width="10" height="80" as="geometry" />
        </mxCell>
        <mxCell id="tHmdUMtizrbjo5yaiY6M-10" value="" style="edgeStyle=orthogonalEdgeStyle;rounded=0;orthogonalLoop=1;jettySize=auto;html=1;fontSize=19;" edge="1" parent="1" source="tHmdUMtizrbjo5yaiY6M-7" target="tHmdUMtizrbjo5yaiY6M-9">
          <mxGeometry relative="1" as="geometry" />
        </mxCell>
        <mxCell id="tHmdUMtizrbjo5yaiY6M-11" value="&lt;font style=&quot;font-size: 13px;&quot;&gt;Асинхронный запрос на создание &lt;br&gt;сборки (Kafka)&lt;/font&gt;" style="edgeLabel;html=1;align=center;verticalAlign=middle;resizable=0;points=[];fontSize=19;" vertex="1" connectable="0" parent="tHmdUMtizrbjo5yaiY6M-10">
          <mxGeometry x="-0.2769" relative="1" as="geometry">
            <mxPoint as="offset" />
          </mxGeometry>
        </mxCell>
        <mxCell id="tHmdUMtizrbjo5yaiY6M-20" value="Остановка целевого приложения" style="html=1;verticalAlign=bottom;startArrow=oval;endArrow=block;startSize=8;rounded=0;fontSize=13;exitX=0.7;exitY=0.975;exitDx=0;exitDy=0;exitPerimeter=0;" edge="1" target="tHmdUMtizrbjo5yaiY6M-19" parent="1" source="tHmdUMtizrbjo5yaiY6M-16">
          <mxGeometry relative="1" as="geometry">
            <mxPoint x="930" y="310" as="sourcePoint" />
          </mxGeometry>
        </mxCell>
        <mxCell id="tHmdUMtizrbjo5yaiY6M-24" value="dispatch" style="html=1;verticalAlign=bottom;endArrow=block;entryX=0;entryY=0;rounded=0;fontSize=13;exitX=0.9;exitY=0.875;exitDx=0;exitDy=0;exitPerimeter=0;" edge="1" target="tHmdUMtizrbjo5yaiY6M-23" parent="1" source="tHmdUMtizrbjo5yaiY6M-26">
          <mxGeometry relative="1" as="geometry">
            <mxPoint x="925" y="540" as="sourcePoint" />
          </mxGeometry>
        </mxCell>
        <mxCell id="tHmdUMtizrbjo5yaiY6M-25" value="return" style="html=1;verticalAlign=bottom;endArrow=open;dashed=1;endSize=8;exitX=0;exitY=0.95;rounded=0;fontSize=13;entryX=1.053;entryY=0.153;entryDx=0;entryDy=0;entryPerimeter=0;" edge="1" source="tHmdUMtizrbjo5yaiY6M-23" parent="1" target="tHmdUMtizrbjo5yaiY6M-28">
          <mxGeometry relative="1" as="geometry">
            <mxPoint x="570" y="590" as="targetPoint" />
          </mxGeometry>
        </mxCell>
      </root>
    </mxGraphModel>
  </diagram>
</mxfile>
